<svg width="20" height="20" viewBox="0 0 20 20" fill="none" xmlns="http://www.w3.org/2000/svg">
<path d="M5.00003 9.16669H8.33336M6.6667 7.50002V10.8334M12.5 10H12.5084M15 8.33335H15.0084M8.70749 4.16669H11.2926C13.48 4.16669 14.5737 4.16669 15.4321 4.58121C16.188 4.94619 16.816 5.53093 17.2339 6.25885C17.7085 7.0856 17.7864 8.17653 17.9423 10.3584L18.1473 13.2288C18.2479 14.6362 17.1332 15.8334 15.7221 15.8334C15.0006 15.8334 14.3163 15.5128 13.8543 14.9585L13.5417 14.5834C13.2557 14.2402 13.1127 14.0686 12.9499 13.93C12.6086 13.6393 12.1954 13.4458 11.7537 13.3697C11.5429 13.3334 11.3196 13.3334 10.8729 13.3334H9.12717C8.68047 13.3334 8.45713 13.3334 8.24639 13.3697C7.80461 13.4458 7.39143 13.6393 7.05012 13.93C6.88731 14.0686 6.74433 14.2402 6.45836 14.5834L6.14573 14.9585C5.68379 15.5128 4.99949 15.8334 4.27791 15.8334C2.8669 15.8334 1.75221 14.6362 1.85274 13.2288L2.05777 10.3584C2.21361 8.17653 2.29154 7.0856 2.76617 6.25885C3.18407 5.53093 3.81207 4.94619 4.56791 4.58121C5.42638 4.16669 6.52009 4.16669 8.70749 4.16669Z" stroke="white" stroke-width="1.75" stroke-linecap="round" stroke-linejoin="round"/>
</svg>
